<svg aria-hidden="true" style="position:absolute;width:0;height:0;overflow:hidden" xmlns="http://www.w3.org/2000/svg">
  <defs>
    <symbol id="icon-logo" viewBox="0 0 32 32">
      <path d="M29.082.314h-4.009c-1.237 0-2.24.983-2.24 2.195v3.929c0 1.212 1.003 2.195 2.24 2.195h4.009c1.237 0 2.24-.983 2.24-2.195V2.509c0-1.212-1.003-2.195-2.24-2.195zM6.73 23.04H2.412C1.08 23.04 0 24.023 0 25.235v3.929c0 1.213 1.08 2.195 2.412 2.195H6.73c1.332 0 2.412-.983 2.412-2.195v-3.929c0-1.212-1.08-2.195-2.412-2.195zM6.25 11.582H2.241c-1.237 0-2.24.983-2.24 2.195v3.929c0 1.212 1.003 2.195 2.24 2.195H6.25c1.237 0 2.24-.983 2.24-2.195v-3.929c0-1.212-1.003-2.195-2.24-2.195zM17.766 22.978h-4.009c-1.237 0-2.24.983-2.24 2.195v3.929c0 1.212 1.003 2.195 2.241 2.195h4.009c1.237 0 2.24-.983 2.24-2.195v-3.929c0-1.213-1.003-2.195-2.24-2.195zM6.25.086H2.241c-1.237 0-2.24.983-2.24 2.195V6.21c0 1.212 1.003 2.195 2.24 2.195H6.25c1.237 0 2.24-.983 2.24-2.195V2.281C8.49 1.069 7.487.086 6.25.086zM18.076 11.697h-4.009c-1.237 0-2.24.983-2.24 2.195v3.929c0 1.212 1.003 2.195 2.24 2.195h4.009c1.237 0 2.24-.983 2.24-2.195v-3.929c0-1.212-1.003-2.195-2.24-2.195zM29.333 22.978h-4.01c-1.237 0-2.24.983-2.24 2.195v3.929c0 1.212 1.003 2.195 2.24 2.195h4.009c1.237 0 2.24-.983 2.24-2.195v-3.929c0-1.213-1.003-2.195-2.24-2.195zM17.591.224h-4.009c-1.237 0-2.24.983-2.24 2.195v3.929c0 1.212 1.003 2.195 2.24 2.195h4.009c1.237 0 2.24-.984 2.24-2.196V2.418c0-1.212-1.003-2.195-2.24-2.195zM29.044 11.926h-4.01c-1.237 0-2.24.983-2.24 2.195v3.929c0 1.212 1.003 2.195 2.24 2.195h4.009c1.237 0 2.24-.983 2.24-2.195v-3.929c0-1.212-1.003-2.195-2.24-2.195z"/>
    </symbol>
    <symbol id="icon-star" viewBox="0 0 32 32">
      <path stroke-linejoin="round" stroke-linecap="round" stroke-width="2.4" d="m16 3.2 3.955 7.899 8.845 1.274-6.4 6.145 1.51 8.681L16 23.098l-7.91 4.101 1.51-8.681-6.4-6.145 8.845-1.274L16 3.2z"/>
    </symbol>
    <symbol id="icon-facebook" viewBox="0 0 32 32">
      <path d="M19.52 4.64h.96v3.6h-1.2c-.48 0-.96 0-1.2.24s-.24.48-.24 1.04v1.28h2.64v3.04h-2.64v13.2h-4.08V13.76H11.6v-3.04h2.16V9.68c0-1.76.24-3.04.72-3.6.72-1.04 2.16-1.52 4.32-1.52.24.08.48.08.72.08z"/>
    </symbol>
    <symbol id="icon-instagram" viewBox="0 0 32 32">
      <path d="M28.717 10.756a9.264 9.264 0 0 0-.596-3.145 6.547 6.547 0 0 0-3.743-3.737 9.42 9.42 0 0 0-3.108-.596c-1.368-.061-1.801-.078-5.273-.078s-3.917 0-5.274.078a9.418 9.418 0 0 0-3.106.596 6.541 6.541 0 0 0-3.743 3.737 9.288 9.288 0 0 0-.596 3.101c-.061 1.367-.08 1.8-.08 5.265s0 3.909.08 5.265a9.335 9.335 0 0 0 .596 3.104 6.548 6.548 0 0 0 3.744 3.735 9.37 9.37 0 0 0 3.106.639c1.369.061 1.803.08 5.274.08s3.916 0 5.274-.08a9.357 9.357 0 0 0 3.108-.595 6.555 6.555 0 0 0 3.743-3.737 9.35 9.35 0 0 0 .596-3.104c.061-1.365.08-1.798.08-5.265-.003-3.466-.003-3.906-.082-5.264zM15.99 22.531c-3.631 0-6.572-2.936-6.572-6.561s2.941-6.561 6.572-6.561c3.628 0 6.572 2.936 6.572 6.561s-2.944 6.561-6.572 6.561zm6.833-11.835a1.53 1.53 0 1 1 0-3.06 1.53 1.53 0 1 1 0 3.06z"/>
      <path d="M15.992 19.976a4.004 4.004 0 1 0 0-8.009 4.004 4.004 0 0 0 0 8.009z"/>
    </symbol>
    <symbol id="icon-youtube" viewBox="0 0 32 32">
      <path d="M24.24 6c-1.36-.08-4.16-.16-8.4-.16h-.56c-4.08 0-6.8.08-8.16.24-1.84.16-3.12.64-3.84 1.28-.64.56-1.12 1.6-1.28 2.96-.08.88-.16 2.72-.16 5.52v.4c0 2.64.08 4.48.24 5.36.24 1.28.64 2.24 1.44 2.8.8.64 2.16 1.04 4.08 1.2 1.36.08 4.16.16 8.4.16h.56c4.08 0 6.8-.08 8.16-.24 1.84-.16 3.12-.64 3.84-1.28.64-.56 1.12-1.6 1.28-2.96.08-.88.16-2.72.16-5.52v-.4c0-2.64-.08-4.48-.24-5.36-.24-1.28-.64-2.24-1.44-2.8-.8-.64-2.16-1.04-4.08-1.2zm-3.12 9.84-8.8 5.28V10.56l8.8 5.28z"/>
    </symbol>
    <symbol id="icon-burger-menu" viewBox="0 0 32 32">
      <path stroke-linejoin="round" stroke-linecap="round" stroke-width="1.6" d="M27.555 16h-24M28 10.667H4M28 21.333H4"/>
    </symbol>
    <symbol id="icon-exit" viewBox="0 0 32 32">
      <path stroke-linejoin="round" stroke-linecap="round" stroke-width="1.684" d="M24 8 8 24M8 8l16 16"/>
    </symbol>


    <symbol  id="orange" width="92" height="105" viewBox="0 0 92 105" fill="black" >
  <path d="M91.9906 50.2383C91.934 55.2043 91.1706 60.5531 89.9548 65.8501C89.8794 66.1812 89.7475 66.5019 89.6061 66.8123C87.3065 71.8817 85.1105 77.0132 82.6412 81.9792C81.2369 84.8036 79.6347 87.5452 77.0335 89.3971C75.9025 90.1938 75.0354 91.4456 74.0647 92.5009C69.4842 97.4565 63.9613 100.395 57.6844 101.688C56.233 101.988 54.7627 102.195 53.3019 102.433C50.4839 102.898 47.647 103.147 44.8384 103.705C41.1345 104.44 37.4965 103.964 34.0376 102.06C30.8332 100.291 27.4968 98.8222 24.0756 97.6014C20.3152 96.2668 16.9788 94.0528 13.7932 91.5284C12.4926 90.4938 11.3899 89.2523 10.4851 87.8142C8.86407 85.2381 7.32782 82.5999 5.69733 80.0342C4.7737 78.5754 4.22705 76.9615 3.85949 75.2648C3.32228 72.7818 2.73794 70.3609 1.50329 68.1262C0.457144 66.2226 0.146147 63.9465 0.0518996 61.7739C-0.108322 58.4218 0.0990442 55.0594 0.721079 51.7488C0.871876 50.9625 1.05093 50.1452 0.994377 49.3589C0.683359 44.7964 1.3714 40.3891 2.20078 35.9404C2.69086 33.2919 3.4825 30.8399 4.39671 28.388C4.87737 27.0948 5.55597 25.9671 6.41362 24.8911C8.48707 22.2633 10.4663 19.5527 12.9544 17.349C13.8592 16.5524 14.7263 15.7144 15.6028 14.8764C17.1861 13.3762 19.0428 12.2278 20.1832 10.1587C20.7864 9.06203 21.776 8.30679 22.8881 7.83088C24.6694 7.06529 26.2999 5.98933 27.8927 4.85129C30.1452 3.23734 32.5297 2.25447 35.2628 1.98548C38.6181 1.65442 41.9356 0.837112 45.2908 0.381897C48.335 -0.0422808 51.3887 -0.259527 54.4329 0.526753C55.4507 0.785398 56.544 0.723308 57.5807 0.899187C58.9284 1.13714 60.2857 1.32338 61.5203 2.10966C66.8642 5.52377 71.6425 9.64139 75.4312 15.0626C76.8449 17.0904 78.4566 18.9319 80.3227 20.4941C82.8674 22.6357 84.8749 25.3773 86.7504 28.15C88.5034 30.7365 89.5119 33.8816 90.0303 37.1095C90.379 39.2821 90.7277 41.4444 91.378 43.5446C92 45.562 91.8681 47.6726 92 50.2487L91.9906 50.2383ZM47.3737 19.1388C46.8177 19.6458 46.893 20.37 46.8176 21.0425C46.4218 24.7152 46.1108 28.3983 45.6113 32.0504C45.2343 34.823 45.3003 37.5647 45.4793 40.3477C45.5736 41.7961 46.1768 42.9859 46.6763 44.2481C46.9213 44.8688 47.4868 44.8688 48.0335 44.7033C48.5895 44.5481 48.9099 44.1136 49.2304 43.6377C50.0315 42.4169 50.7666 41.134 51.6714 40.0166C54.2915 36.7577 55.9314 32.8677 57.5242 28.9673C58.231 27.2292 58.8907 25.398 58.7588 23.3599C57.3639 23.1737 56.1105 23.0185 54.8664 22.8219C54.3669 22.7392 54.0182 22.0253 54.1407 21.4977C54.2632 20.9597 54.6496 20.7528 55.0643 20.7528C56.3084 20.7735 57.5525 20.8562 58.8531 20.9286C58.8531 20.5252 58.9662 20.1113 58.8342 19.8527C58.0237 18.3112 56.8739 17.2145 55.3188 16.5524C53.7826 15.9006 52.218 15.9627 50.6441 16.0454C48.2785 16.1799 48.0617 16.4179 47.3077 19.2423L47.3737 19.1285V19.1388ZM71.077 45.9758C71.6048 45.9655 72.1326 46.0069 72.651 45.9241C73.9045 45.7482 75.1485 45.4378 76.4114 45.3137C78.1927 45.1378 78.777 45.5827 79.2106 47.3311C80.596 52.9799 80.1719 58.577 78.5791 64.0706C77.8723 66.5019 76.8732 67.133 74.5453 66.9157C73.4992 66.8226 72.4625 66.5536 71.4163 66.3881C70.7472 66.2846 70.323 66.6984 70.4832 67.3606C70.7942 68.7055 71.1524 70.0298 71.5106 71.3644C72.1326 73.6508 72.0854 75.6579 70.012 77.1684C68.7868 78.0581 67.7689 79.279 66.572 80.2204C63.6597 82.4862 60.0689 81.7619 57.9672 78.5547C57.4488 77.7685 57.1755 76.7442 55.9502 76.1338C57.364 79.5686 57.8258 83.0448 59.4374 86.0451C59.5411 86.2417 59.5976 86.4796 59.6447 86.6969C60.0406 88.5177 59.7201 90.0593 57.5336 90.4834C55.5544 90.8766 53.5187 90.9283 51.6054 91.4663C49.4189 92.0767 47.4114 91.5491 45.3568 91.1249C43.896 90.8249 42.5671 89.8937 41.5492 88.7764C40.8329 87.9901 41.2193 86.5624 41.2193 85.4037C41.2193 84.7208 41.1439 84.0484 41.1062 83.3655C40.6915 84.069 40.5596 84.8346 40.3428 85.5692C39.4286 88.6109 37.5719 90.3903 34.6125 90.7214C34.179 90.7731 33.5664 90.411 33.2837 91.2387C33.5287 91.456 33.7455 91.7043 34 91.8595C37.1196 93.67 40.3899 94.7769 43.9713 94.9011C48.024 95.0459 51.9918 94.808 55.79 93.0802C57.543 92.2836 59.3149 91.5387 61.0962 90.7938C64.4231 89.4075 67.1281 87.0073 69.7104 84.4208C73.2542 80.8722 75.8836 76.5063 78.6262 72.2438C78.9278 71.7782 79.1729 71.2403 79.3237 70.7023C80.6808 65.7156 82.3207 60.8014 82.8014 55.5767C83.0653 52.7006 83.725 49.8555 83.4423 46.938C83.1595 44.0515 82.8014 41.1754 81.906 38.4337C80.7374 34.8541 79.776 31.171 77.3727 28.2121C76.4774 27.1051 75.7517 25.7498 75.2239 24.3738C73.961 21.1045 71.9253 18.487 69.767 15.9316C69.1073 15.1453 68.3721 14.5453 67.5333 14.028C65.1205 12.5175 62.557 11.5036 59.7861 11.1726C57.5902 10.9139 55.3659 10.8518 53.2548 9.92072C52.6045 9.63104 51.7939 9.67241 51.0588 9.68276C48.5235 9.72414 45.9882 9.76553 43.453 9.91037C42.5199 9.9621 41.5397 10.138 40.6821 10.5311C38.7877 11.4105 36.8839 11.8554 34.8199 11.545C33.7832 11.3898 32.737 11.5657 31.7474 12.1037C28.3262 13.9763 25.0841 16.0972 22.3509 19.0974C20.777 20.8148 19.1465 22.4805 17.4218 24.0117C14.7545 26.3705 13.1523 29.4846 12.1627 32.9298C10.1458 39.9235 9.09967 47.1242 8.87348 54.4697C8.8452 55.5147 8.78865 56.5803 8.93002 57.5941C9.42953 61.0186 9.83484 64.4845 10.6171 67.8365C12.502 75.9683 16.9128 82.1137 23.4631 86.4072C23.7364 86.5831 24.1228 87.0176 24.5563 86.4382C23.2934 83.4586 23.9532 80.9343 26.0549 78.6272C27.921 76.5787 29.6363 74.3647 31.3893 72.1921C31.7003 71.8093 32.2092 71.4368 31.9265 70.7437C31.1254 70.7954 30.673 71.4886 30.0981 71.9231C27.5628 73.8371 24.9239 75.5234 21.9928 76.5994C19.269 77.6029 16.5924 76.3511 15.5557 73.4853C15.2069 72.5231 14.8111 71.53 14.698 70.5161C14.4058 67.7537 14.2362 64.9811 14.0477 62.2084C13.9534 60.8014 14.5755 59.8392 15.6216 59.0322C17.4029 57.6666 19.4575 57.1286 21.465 56.4354C23.6798 55.6595 25.9229 55.0077 28.1283 54.2318C28.6561 54.0455 29.3818 53.9214 29.5232 52.8454C27.7231 52.7006 25.9512 52.4626 24.1699 52.4316C21.3896 52.3799 18.7224 51.635 16.074 50.8797C13.7178 50.2073 12.5869 48.4899 12.4926 45.8413C12.3889 43.048 12.5586 40.296 13.2937 37.5751C14.1419 34.4092 15.8667 32.0504 18.3642 30.2916C19.2313 29.6812 20.0795 29.6708 21.0597 30.1157C23.84 31.3882 26.1585 33.3643 28.3262 35.6093C29.7117 37.037 31.0783 38.4855 32.4731 39.9029C32.9067 40.3374 33.4062 40.3891 33.8963 39.996L33.7926 40.1098L33.9622 40.1305C31.2762 35.7645 29.3724 31.0779 28.3262 25.8946C27.8173 23.3806 28.2508 21.3218 29.542 19.3664C30.4091 18.0525 31.3987 16.8421 32.3129 15.5695C33.048 14.5453 33.9999 13.8314 34.9895 13.1486C36.4127 12.1761 37.7604 12.2692 39.0893 13.4176C40.7858 14.8764 41.9922 16.7593 43.0006 18.8181C43.2457 19.3147 43.2928 19.9561 44.0656 20.0906C44.3295 19.1699 44.7254 18.2388 44.8479 17.2662C45.1495 14.9488 46.6197 13.7487 48.3822 13.3141C52.5856 12.2796 56.5346 13.0245 59.9652 16.1489C60.9265 17.0179 61.4732 18.0525 61.558 19.4078C61.6334 20.5148 61.7559 21.6115 61.8596 22.7805C65.6389 20.7838 67.6181 21.0838 70.6152 24.0117C71.6425 25.0152 72.6038 26.0912 73.6406 27.0844C76.713 29.9916 77.9288 33.8712 78.4377 38.1027C78.6357 39.727 78.1362 41.0823 76.779 41.9203C75.3088 42.841 73.8196 43.7101 72.3682 44.6516C71.8687 44.9826 71.1524 45.1585 71.1335 46.0275C70.8885 45.9862 70.6435 45.8931 70.521 46.2552C70.521 46.2552 70.6812 46.369 70.7095 46.3483C70.8414 46.2345 70.9545 46.0896 71.0676 45.9551L71.077 45.9758ZM77.7215 21.9322C77.4105 22.377 77.5801 22.8219 77.7592 23.2358C78.6074 25.098 79.4651 26.9603 80.6055 28.6466C81.2935 29.6605 81.9626 30.7365 82.4245 31.8952C84.4979 37.006 85.7702 42.3548 86.0906 47.9622C86.1472 48.9968 86.2132 50.0624 86.0718 51.0867C85.3084 56.5699 84.7901 62.0739 83.1784 67.402C82.104 70.9506 80.8316 74.2612 78.8148 77.3339C75.2616 82.7448 71.3032 87.597 66.0913 91.1663C60.8134 94.777 55.2434 97.3013 48.9759 97.8704C43.5096 98.367 38.1657 97.9014 33.2648 95.0977C30.362 93.432 27.3178 92.1181 24.4055 90.5041C19.6272 87.8659 15.4049 84.607 12.3324 79.6307C10.5982 76.8167 9.06196 73.9716 8.15718 70.7333C7.57285 68.6331 7.19589 66.4915 6.83775 64.3189C6.10262 59.8495 5.74446 55.4215 6.23455 50.9211C6.34765 49.8865 6.33821 48.8416 6.39475 47.7967C6.42303 47.2173 6.43247 46.6276 6.52672 46.0689C7.33725 41.165 8.22316 36.2818 9.5709 31.5228C10.3343 28.8225 11.6632 26.443 13.388 24.4152C15.4803 21.9736 17.7799 19.7492 20.023 17.4628C22.4357 15.0109 24.9899 12.7761 28.0341 11.3277C29.1933 10.7794 30.3997 10.3035 31.4835 9.60001C32.6333 8.84476 33.8209 8.60681 35.1026 8.56543C36.1582 8.53439 37.2986 8.73095 38.2505 8.3585C41.5209 7.09631 44.895 7.1791 48.2596 7.02391C50.9174 6.89976 53.5375 7.04458 56.0916 7.93432C56.6854 8.14123 57.3262 8.28609 57.9483 8.30678C60.8417 8.41024 63.556 9.35171 66.2515 10.3759C66.572 10.5001 66.9396 10.976 67.2883 10.2518C66.572 9.28964 65.8463 8.25505 64.8095 7.68603C62.8303 6.59972 61.0679 5.04786 58.9191 4.334C58.5138 4.1995 58.0991 4.12707 57.675 4.065C55.479 3.72359 53.2831 3.43389 51.0965 3.0511C50.0315 2.86487 49.0136 2.9166 47.9486 3.08213C43.5567 3.74427 39.1647 4.32364 34.7728 4.96508C33.5099 5.1513 32.3035 5.56514 31.1725 6.22727C28.5807 7.72741 25.8569 8.98958 23.9625 11.6174C19.8628 14.5142 16.1871 17.9801 12.6434 21.6322C8.79808 25.5946 5.74446 30.0847 5.05645 36.0645C4.92451 37.2026 4.64178 38.3303 4.36846 39.4476C3.74643 42.0548 3.52025 44.6826 3.73702 47.3725C3.86897 49.1106 3.97262 50.8694 3.60506 52.5765C3.09612 54.9767 3.04895 57.3976 2.97356 59.8392C2.88873 62.5601 3.41657 65.1569 4.55697 67.5261C5.60312 69.6987 6.31936 71.9955 6.86599 74.344C7.43148 76.7546 8.38343 78.8858 9.7406 80.8515C10.7585 82.331 11.7952 83.8104 12.6528 85.3933C13.944 87.7625 15.6876 89.5523 17.893 90.8042C21.0691 92.6043 24.0662 94.8287 27.6948 95.5426C28.5053 95.6977 29.2781 96.1943 30.051 96.5668C32.0773 97.5496 34.1036 98.5428 36.13 99.536C38.3825 100.643 40.6821 101.171 43.1985 100.953C45.5359 100.757 47.7601 100.022 50.0409 99.6188C53.2642 99.0498 56.5157 98.7084 59.7013 97.829C63.1319 96.8875 66.3363 95.5425 69.0789 93.0802C71.2843 91.1042 73.3766 88.973 75.5632 86.9659C76.8827 85.7554 77.9382 84.3587 78.8619 82.7758C81.0861 78.9582 82.6695 74.7682 84.5921 70.7747C85.6289 68.6331 86.7693 66.4605 87.3536 64.1534C88.6825 58.8977 89.5402 53.5283 89.3705 48.014C89.3234 46.369 89.2009 44.7654 88.7108 43.2239C88.1076 41.3616 87.7306 39.4476 87.4101 37.5026C86.9389 34.6265 86.1755 31.74 84.5827 29.4536C82.6318 26.6395 80.6243 23.7323 77.6932 21.9322H77.7215ZM50.5687 45.9034C52.2651 46.669 53.5187 47.507 54.6779 48.4795C55.5073 49.1727 56.3838 49.3175 57.3545 48.914C58.1368 48.583 58.9473 48.314 59.7013 47.9105C61.7842 46.7931 63.9519 45.8931 66.0724 44.8999C68.9753 43.5446 71.765 41.9099 74.5642 40.3063C75.7611 39.6235 75.9873 38.8579 75.7328 37.4302C75.6292 36.8612 75.5821 36.2611 75.3653 35.7438C74.5077 33.6643 74.0364 31.3469 72.4059 29.7329C71.1618 28.4914 69.9272 27.2292 68.6548 26.0188C66.4211 23.8772 64.621 24.0221 62.6795 26.4533C62.4062 26.7947 62.2083 27.2086 62.0009 27.612C59.4939 32.5573 56.855 37.3992 53.4244 41.672C52.4537 42.8824 51.662 44.2584 50.5593 45.9034H50.5687ZM77.5047 54.2628C77.6461 52.5971 77.0429 51.0556 76.779 49.4727C76.5905 48.345 76.1853 48.0657 75.2428 48.3554C71.5011 49.5037 67.6181 50.0728 63.9896 51.6867C63.4147 51.9453 62.7738 52.0385 62.1612 52.204C60.3139 52.6799 58.4101 52.9592 56.6571 53.6938C55.5732 54.149 54.2821 54.5939 53.6035 55.8871C54.0276 57.5838 55.5167 57.4493 56.61 57.8838C58.2876 58.5563 60.0688 58.9391 61.6428 59.9323C64.7907 61.9187 68.2967 62.8084 71.7462 63.8534C72.3494 64.0396 72.9902 64.0913 73.6217 64.1431C75.6951 64.3086 76.0439 63.843 76.5245 61.7945C77.09 59.3529 77.2031 56.7768 77.5141 54.2628H77.5047ZM29.674 56.6216C29.3724 56.6527 29.1556 56.663 28.9577 56.7148C25.1218 57.6562 21.6252 59.5702 18.1286 61.4531C17.5537 61.7635 17.1579 62.3636 17.139 63.1188C17.0636 66.1295 17.139 69.1401 18.0438 72.0162C18.6282 73.8784 19.2596 74.1888 20.9372 73.4646C26.2811 71.1265 31.0123 67.7744 34.8293 62.9947C35.8755 61.6911 36.686 60.191 37.374 58.6184C37.6944 57.8735 37.374 57.3148 36.5729 57.1803C35.2063 56.9527 33.8491 56.87 32.5014 57.3252C31.7757 57.5735 31.0783 57.6769 30.4374 57.0251C30.2206 56.8079 29.8907 56.7355 29.6834 56.632L29.674 56.6216ZM42.3597 30.5192H42.3692C42.3692 29.1225 42.4351 27.7258 42.3597 26.3499C42.1618 22.884 40.8706 19.8941 38.882 17.2249C37.6756 15.6109 36.6954 15.4143 35.1592 17.0283C33.7926 18.4663 32.558 20.0596 31.5778 21.8701C31.0783 22.7909 30.6353 23.7945 30.9275 24.8394C31.5589 27.1672 31.5966 29.6605 32.5862 31.8745C34.3581 35.8266 36.2996 39.6649 38.6746 43.2239C38.9762 43.6791 39.1741 44.4446 39.749 44.3515C40.5219 44.2274 40.5219 43.3583 40.5408 42.6962C40.569 41.7754 40.4747 40.8443 40.437 39.9235C40.4088 39.1993 40.5219 38.4131 41.0497 38.0199C42.4351 37.006 42.3409 35.4852 42.3786 33.9954C42.4069 32.8367 42.3786 31.6779 42.3786 30.5192H42.3597ZM44.4614 82.3413C44.4614 82.3413 44.3672 82.3413 44.3201 82.3413C44.3201 83.3862 44.3012 84.4208 44.3201 85.4657C44.3672 87.5866 44.7253 87.9901 46.582 88.6005C49.6545 89.6144 52.6421 88.6212 55.6392 88.1556C56.1387 88.0832 56.6194 87.5763 56.412 86.8831C55.7712 84.6794 55.2528 82.4137 54.3857 80.3239C52.4348 75.5958 50.0975 71.0747 48.4199 66.2019C48.1277 65.3432 47.713 64.5258 47.2794 63.7396C46.9496 63.1498 46.5349 62.6119 46.0825 62.1463C45.9035 61.9601 45.3757 61.8463 45.2437 61.9808C44.584 62.6429 43.5755 63.005 43.6698 64.35C43.8017 66.1915 43.7828 68.0434 43.8677 69.8953C44.0467 74.044 44.2541 78.1926 44.4426 82.3309L44.4614 82.3413ZM32.935 50.2383C32.9727 49.4934 32.9349 48.9347 33.048 48.4174C33.1988 47.7553 33.4722 47.1242 33.7078 46.4828C34.1696 45.2102 34.1979 45.1792 33.1517 44.1964C30.3431 41.5685 27.544 38.9303 24.6788 36.3749C23.7081 35.5059 22.5865 34.8127 21.4744 34.1609C19.9099 33.2401 19.6837 33.3229 18.4962 34.6989C15.9798 37.6268 15.6405 41.2892 15.6405 45.0344C15.6405 46.8242 15.9892 47.3932 17.4877 47.7553C20.3529 48.4485 23.152 49.5451 26.168 49.4417C28.3545 49.3693 30.5693 49.3589 32.9255 50.2383H32.935ZM66.5342 76.0097C67.6841 75.9683 69.1826 74.5923 68.9847 73.5888C68.5606 71.3541 67.9103 69.1711 67.2976 66.9778C67.2128 66.6881 66.8736 66.4812 66.638 66.2536C65.9122 65.5708 65.1111 65.0742 64.1969 64.7121C61.8124 63.7913 59.4751 62.7464 57.1001 61.7842C55.5262 61.1428 53.9333 60.5324 52.3405 59.9116C51.907 59.7461 51.53 59.8392 51.219 60.2427C50.8703 60.7082 50.5875 61.2152 50.8232 61.8152C51.0305 62.3429 51.285 62.8602 51.6149 63.2947C54.6402 67.3089 57.4111 71.5196 60.1254 75.7821C60.6155 76.558 61.181 77.1994 61.9256 77.6857C62.4062 77.9961 62.9057 78.1513 63.4335 78.0168C63.6974 77.9547 63.9613 77.7064 64.1404 77.4581C64.2063 77.365 64.1027 76.9925 63.9802 76.8684C63.7634 76.6408 63.4147 76.5373 63.2073 76.2994C62.5287 75.5027 62.5287 74.4992 63.1508 73.8681C63.7822 73.2267 64.6588 73.4646 65.2242 74.4681C65.3845 74.7578 65.3467 75.2234 65.5447 75.4303C65.8368 75.7303 66.261 75.8648 66.5154 76.0097H66.5342ZM34.8576 72.9266C35.6681 73.7853 36.2902 74.6647 35.5362 75.9683C35.31 76.3614 35.5833 77.0857 35.5739 77.665C35.555 78.4927 35.0649 78.8341 34.2827 78.6892C33.4156 78.5237 33.0292 77.965 32.9444 77.0339C32.9067 76.6408 33.18 76.0097 32.5297 75.989C32.2941 75.989 31.983 76.2994 31.8134 76.5477C30.673 78.2237 29.4289 79.7962 28.0152 81.2033C27.1293 82.0827 26.9502 83.2103 27.2141 84.3691C27.4403 85.3726 27.9775 86.252 28.7127 86.9762C30.3809 88.6419 32.3789 88.6109 34.3958 88.3315C36.2619 88.0729 36.8368 86.3037 37.4777 84.7208C37.7793 83.9863 38.0432 83.2103 38.1657 82.4241C38.8537 77.9754 39.4946 73.5163 40.1261 69.0573C40.2486 68.2193 40.6538 67.3606 40.2014 66.2743C38.0903 68.2607 36.5069 70.5161 34.867 72.9266H34.8576ZM40.9743 58.6701C42.1995 57.9976 43.0949 57.47 43.4718 56.0423C43.8488 54.6352 44.9798 54.5629 45.894 55.6492C46.1768 55.9906 46.4029 56.394 46.6857 56.7355C47.1852 57.3355 47.7696 58.0701 48.5518 57.6666C49.0513 57.4079 48.6743 56.6217 48.6931 56.063C48.712 55.7423 48.7874 55.2871 48.9853 55.1319C49.8147 54.4904 50.0032 53.7869 49.5037 52.773C49.1173 51.9868 49.4 51.2211 49.843 50.4969C50.0126 50.228 50.0503 49.8348 49.7487 49.5658C48.957 48.852 48.3633 47.7967 47.0816 48.045C45.7055 48.3036 44.6405 47.6415 43.7734 46.4931C43.1514 45.6758 42.7084 46.0586 42.4068 46.8345C41.8979 48.1484 40.9177 48.345 39.7962 48.2312C39.3815 48.1898 38.9668 48.0553 38.5521 47.9932C36.865 47.7449 36.6483 47.9519 37.0913 49.6796C37.3646 50.7349 37.44 51.6246 36.7991 52.6075C36.243 53.4558 36.4221 53.9421 37.2609 54.0145C38.8254 54.149 39.7962 55.0387 40.3994 56.5079C40.6538 57.1286 40.7575 57.8321 40.9649 58.6805L40.9743 58.6701ZM40.5784 61.7221C40.5313 61.5049 40.5407 61.2048 40.4182 61.1014C40.1355 60.8634 39.8999 61.1014 39.7114 61.36C39.5135 61.6187 39.2778 61.8566 39.1365 62.1463C38.9762 62.4774 38.4485 62.8705 39.0799 63.2119C39.4569 63.4085 39.881 63.2637 40.2109 62.9533C40.5596 62.6326 40.5879 62.1877 40.5879 61.7325L40.5784 61.7221Z" fill="#FCFCFC" fill-opacity="0.08" />
  <path d="M60.5779 44.0103C60.38 43.9689 60.1349 43.9896 59.9935 43.8654C59.7673 43.6689 59.5694 43.3999 59.4469 43.1205C59.2961 42.7791 59.4469 42.448 59.7202 42.2722C60.0595 42.0446 60.4271 41.8066 60.8135 41.7032C61.5015 41.5169 62.0576 41.9204 62.1989 42.6239C62.3497 43.3378 61.9916 43.793 61.1811 43.9275C60.9831 43.9585 60.7758 43.9792 60.5779 44.0103Z" fill="#FCFCFC" fill-opacity="0.08" />
  <path d="M62.689 34.9473C62.0576 35.03 61.6994 34.73 61.6523 34.0368C61.5863 33.2092 62.0481 32.5677 62.6513 32.6505C63.3487 32.754 64.1404 33.6747 63.9802 34.2851C63.8012 34.9886 63.1886 34.8749 62.6985 34.9473H62.689Z" fill="#FCFCFC" fill-opacity="0.08" />
  <path d="M67.4674 35.9613C67.4297 36.4786 67.2129 36.8717 66.7134 36.8614C66.261 36.8407 65.5919 37.2131 65.4599 36.3234C65.3751 35.7233 65.4599 35.144 66.0913 34.9267C66.6568 34.7301 67.3826 35.2991 67.4674 35.9716V35.9613Z" fill="#FCFCFC" fill-opacity="0.08" />
  <path d="M68.3721 33.4573C68.259 34.1194 67.7218 34.1401 67.2223 34.1401C66.4117 34.1401 66.0159 33.7263 66.0159 32.9814C66.0159 32.3917 66.4589 31.9157 66.9866 31.9364C67.8066 31.9778 68.4003 32.5882 68.3721 33.4676V33.4573Z" fill="#FCFCFC" fill-opacity="0.08" />
  <path d="M68.6831 39.7685C69.3899 39.7996 69.7857 40.2755 70.0119 40.9376C70.1722 41.4135 69.7009 41.8377 69.0412 41.8273C68.5228 41.8273 68.0139 41.786 67.9479 41.0204C67.8914 40.4203 68.259 39.7892 68.6925 39.7582L68.6831 39.7685Z" fill="#FCFCFC" fill-opacity="0.08" />
  <path d="M56.4403 42.4687C56.3743 43.1101 55.8748 43.4205 55.0454 43.317C54.4328 43.2446 54.1407 42.8618 54.2067 42.21C54.2821 41.4548 54.8098 40.9996 55.4507 41.072C56.0916 41.1444 56.5063 41.7341 56.4309 42.4687H56.4403Z" fill="#FCFCFC" fill-opacity="0.08" />
  <path d="M61.6429 36.4061C62.3686 36.3854 63.2074 37.1924 63.0566 37.8235C63.0189 37.989 62.7928 38.1959 62.6326 38.2269C61.7749 38.3821 61.0209 37.8338 61.068 37.1096C61.0869 36.7475 61.2848 36.4889 61.6429 36.3958V36.4061Z" fill="#FCFCFC" fill-opacity="0.08" />
  <path d="M51.9164 33.1989C51.9258 34.1301 51.0116 35.2785 49.9749 35.5578C49.5885 35.6612 49.0795 35.7854 48.891 35.2681C48.7496 34.875 48.6742 34.2542 48.8721 33.9645C49.2868 33.3334 49.8618 32.8058 50.4273 32.3299C50.7854 32.0195 51.9164 32.723 51.9164 33.1989Z" fill="#FCFCFC" fill-opacity="0.08" />
  <path d="M48.4386 40.4306C47.5056 40.503 47.138 40.3375 47.0532 39.8202C46.9589 39.2409 47.0532 38.6925 47.6093 38.4132C48.0993 38.1649 48.6083 38.1856 49.089 38.4235C49.4848 38.6201 49.7392 39.0029 49.6544 39.4788C49.5979 39.7685 49.3905 40.1306 49.1549 40.2548C48.8062 40.441 48.3726 40.441 48.448 40.4306H48.4386Z" fill="#FCFCFC" fill-opacity="0.08" />
  <path d="M47.3171 19.2423C47.6187 18.7457 48.024 18.3836 48.5895 18.3629C49.1738 18.3422 49.6073 18.7146 49.777 19.294C49.9278 19.8113 49.5225 20.0596 49.1361 20.2975C47.9863 21.0011 47.9297 20.97 47.3925 19.1285C47.3925 19.1388 47.3266 19.2526 47.3266 19.2526L47.3171 19.2423Z" fill="#FCFCFC" fill-opacity="0.08" />
  <path d="M49.4377 29.6916C49.4848 30.2813 48.6648 31.0159 47.8637 30.9745C47.6281 30.9642 47.2888 30.6331 47.2134 30.3744C46.9872 29.5364 47.4962 28.5743 48.1182 28.4915C48.6554 28.4191 49.3811 29.0812 49.4283 29.6916H49.4377Z" fill="#FCFCFC" fill-opacity="0.08" />
  <path d="M52.7458 25.3049C52.6609 25.7601 51.7938 26.2464 51.2189 26.1637C50.71 26.0912 50.3801 25.3463 50.5027 24.529C50.5781 24.0014 50.9079 23.7427 51.3603 23.7945C52.1708 23.8979 52.8683 24.6945 52.7458 25.3049Z" fill="#FCFCFC" fill-opacity="0.08" />
  <path d="M55.7616 28.326C55.6391 28.9881 54.9134 29.5157 54.3197 29.4019C53.6222 29.2571 53.7165 28.626 53.7825 28.088C53.8673 27.4155 54.3197 27.0948 54.838 27.3121C55.3093 27.5086 55.7899 27.7259 55.7616 28.326Z" fill="#FCFCFC" fill-opacity="0.08" />
  <path d="M72.472 62.3324C71.8122 62.3324 71.2844 61.7944 71.275 61.0805C71.2656 60.1908 71.9253 59.3217 72.5285 59.5183C73.1694 59.7252 73.5652 60.2322 73.5935 60.9978C73.6218 61.7116 73.094 62.3324 72.472 62.3324Z" fill="#FCFCFC" fill-opacity="0.08" />
  <path d="M61.5674 57.108C60.5495 57.0873 60.0971 56.6631 60.1819 55.8147C60.2667 54.9767 60.8699 54.4801 61.7087 54.5629C62.5098 54.6457 63.1036 55.3595 62.9622 56.1562C62.8114 56.9631 62.2648 57.2011 61.5674 57.108Z" fill="#FCFCFC" fill-opacity="0.08" />
  <path d="M73.6215 50.8902C74.2436 50.8074 74.696 51.2523 74.8185 52.1213C74.9222 52.8352 74.6111 53.4249 74.1399 53.4145C73.3199 53.3938 72.566 52.7628 72.6037 52.0282C72.6319 51.3868 73.0089 51.0143 73.6215 50.8902Z" fill="#FCFCFC" fill-opacity="0.08" />
  <path d="M70.3984 55.4631C69.7858 55.4217 69.2674 54.5009 69.4182 53.6112C69.5313 52.9077 70.0403 52.7422 70.6058 52.8042C71.3126 52.887 71.7085 53.456 71.6708 54.2216C71.6331 54.8837 71.0111 55.4941 70.4079 55.4528L70.3984 55.4631Z" fill="#FCFCFC" fill-opacity="0.08" />
  <path d="M69.503 57.0767C69.4841 57.1698 69.4747 57.294 69.4181 57.3767C68.9751 58.0389 67.6557 57.8837 67.3164 57.1285C67.1185 56.6939 67.1468 56.218 67.4012 55.8456C67.7782 55.2765 68.2778 55.4214 68.7679 55.7111C69.2579 56.0008 69.5595 56.4042 69.5124 57.0767H69.503Z" fill="#FCFCFC" fill-opacity="0.08" />
  <path d="M24.1511 66.8017C24.1511 67.5363 23.6044 68.0639 22.8976 68.0018C22.2661 67.9501 21.7949 67.3708 21.7478 66.6052C21.7006 65.8396 22.1907 65.2292 22.8504 65.2085C23.6139 65.1878 24.1511 65.8396 24.1511 66.8017Z" fill="#FCFCFC" fill-opacity="0.08" />
  <path d="M32.1714 62.9223C32.0489 63.0982 31.9547 63.3464 31.8039 63.4189C31.1818 63.7189 30.1828 63.243 29.9566 62.5705C29.7775 62.0222 30.1263 61.1738 30.7012 60.8634C30.9839 60.7083 31.3044 60.7083 31.5306 61.0393C31.9264 61.598 32.1243 62.2291 32.1714 62.9223Z" fill="#FCFCFC" fill-opacity="0.08" />
  <path d="M29.1555 63.3983C29.0424 64.0087 28.5994 64.2052 28.0434 64.1432C27.1575 64.0397 26.5919 63.3776 26.7239 62.6534C26.8558 61.9602 27.3742 61.836 27.8832 61.8153C28.6654 61.7843 29.212 62.4671 29.1461 63.3983H29.1555Z" fill="#FCFCFC" fill-opacity="0.08" />
  <path d="M38.4106 35.9716C37.4304 35.9405 36.8272 35.4439 36.9403 34.7197C37.0346 34.13 37.3267 33.6541 37.8734 33.53C38.6085 33.3541 39.4379 34.3887 39.2965 35.2577C39.2117 35.775 38.863 35.9716 38.4106 35.9716Z" fill="#FCFCFC" fill-opacity="0.08" />
  <path d="M38.0053 30.9329C38.0242 31.5123 37.8074 31.7502 37.289 31.7813C36.6576 31.8227 36.0544 31.9571 35.8659 31.0157C35.7245 30.2811 36.1109 29.4431 36.6199 29.4535C37.2513 29.4535 37.8828 30.1466 38.0053 30.9329Z" fill="#FCFCFC" fill-opacity="0.08" />
  <path d="M38.9574 25.2532C38.4861 25.2739 38.1468 25.0566 38.128 24.5083C38.1091 23.8669 38.4295 23.3392 38.9762 23.2668C39.4945 23.1944 39.9846 23.5668 40.2108 24.1255C40.4087 24.6428 39.7396 25.2222 38.9574 25.2532Z" fill="#FCFCFC" fill-opacity="0.08" />
  <path d="M34.5749 26.8776C33.8775 26.8983 33.5571 26.5051 33.5288 25.8947C33.5099 25.4706 33.623 25.005 34.1697 25.0257C34.9048 25.0567 35.3855 25.5326 35.3478 26.1844C35.3101 26.7638 34.8954 26.8155 34.5749 26.8776Z" fill="#FCFCFC" fill-opacity="0.08" />
  <path d="M36.5447 21.8909C36.3939 22.0772 36.2337 22.4496 35.9981 22.5324C35.3383 22.7703 34.4524 22.0151 34.5184 21.3012C34.5466 20.9184 34.8482 20.7012 35.1687 20.6805C35.8661 20.6494 36.4881 21.1874 36.5541 21.8806L36.5447 21.8909Z" fill="#FCFCFC" fill-opacity="0.08" />
  <path d="M50.0973 82.9207C50.9079 82.8483 51.7467 82.7448 52.3687 83.4897C52.7269 83.9139 52.9342 84.4312 52.7646 85.0209C52.6138 85.5278 52.2274 85.6416 51.8033 85.683C51.5017 85.7141 51.1906 85.7761 50.8891 85.7761C49.6921 85.7761 49.4659 85.414 49.4942 83.5414L49.4282 83.6139C49.6733 83.3449 49.9183 83.0759 50.1633 82.8069L50.0973 82.931V82.9207Z" fill="#FCFCFC" fill-opacity="0.08" />
  <path d="M46.2803 67.4329C46.9588 67.3501 47.4772 67.8053 47.5714 68.5502C47.694 69.4917 47.251 70.3194 46.6102 70.3814C45.8562 70.4539 45.1776 69.8642 45.0833 69.0572C44.9797 68.1985 45.4697 67.5363 46.2803 67.4329Z" fill="#FCFCFC" fill-opacity="0.08" />
  <path d="M49.4849 83.5412C48.8158 83.6033 48.2126 83.4171 47.7507 82.8894C47.3738 82.4653 47.1193 81.9376 47.3078 81.3169C47.4586 80.8203 47.8639 80.6547 48.2974 80.6133C48.8535 80.5513 49.3907 80.6961 49.6357 81.2859C49.8525 81.7928 49.9467 82.3721 50.0975 82.9205L50.1635 82.7963C49.7299 82.8584 49.5886 83.2412 49.4284 83.6033L49.4944 83.5309L49.4849 83.5412Z" fill="#FCFCFC" fill-opacity="0.08" />
  <path d="M49.4283 75.596C49.4189 76.2891 48.9288 76.7133 48.1088 76.734C47.3077 76.7547 46.8647 76.3409 46.8742 75.5546C46.8742 74.5407 47.4114 73.8475 48.1182 73.9303C48.8817 74.0234 49.4377 74.7269 49.4283 75.596Z" fill="#FCFCFC" fill-opacity="0.08" />
  <path d="M21.3801 44.0929C22.0964 43.1515 22.9729 43.1722 23.9248 43.555C24.66 43.8446 25.2443 43.6791 25.8852 43.079C26.6015 42.4066 27.2989 42.7066 27.8644 43.6998C28.1283 44.155 28.0434 44.6723 27.5722 44.8068C26.1773 45.1999 24.7636 45.531 23.3499 45.7897C21.9551 46.0483 21.9456 45.9966 21.465 43.9688L21.3801 44.0929Z" fill="#FCFCFC" fill-opacity="0.08" />
  <path d="M19.2972 36.675C20.2491 36.7785 21.1916 37.6889 21.2859 38.589C21.3047 38.7856 21.2104 39.0443 21.0785 39.1891C20.6544 39.6857 19.5799 39.7581 19.071 39.365C18.5809 38.9718 18.2888 37.8028 18.6092 37.2027C18.7506 36.944 19.0899 36.8199 19.2878 36.675H19.2972Z" fill="#FCFCFC" fill-opacity="0.08" />
  <path d="M21.4743 43.9687C21.0784 44.0514 20.6827 44.1445 20.2868 44.2169C19.9098 44.279 19.4574 44.5894 19.2124 44.0411C18.9391 43.41 18.8825 42.7065 19.3443 42.1374C19.7402 41.6408 20.2774 41.7443 20.7486 42.0236C21.5309 42.4789 21.5309 43.2651 21.3895 44.0824L21.4743 43.9687Z" fill="#FCFCFC" fill-opacity="0.08" />
  <path d="M65.8557 70.5162C65.8274 71.3024 65.1677 71.8197 64.2629 71.7887C63.443 71.7576 62.8963 71.0645 63.0094 70.1954C63.1225 69.316 63.7917 68.7263 64.5457 68.8505C65.2996 68.9746 65.884 69.7195 65.8557 70.5162Z" fill="#FCFCFC" fill-opacity="0.08" />
  <path d="M59.8427 65.4052C59.7673 66.3363 59.2584 66.8018 58.3725 66.7398C57.807 66.6984 57.3357 66.0259 57.364 65.3017C57.4017 64.4844 58.0426 63.8947 58.8437 63.9671C59.4846 64.0188 59.8993 64.6189 59.8427 65.4155V65.4052Z" fill="#FCFCFC" fill-opacity="0.08" />
  <path d="M33.6136 81.3896C34.3864 81.4413 34.7917 82.0517 34.7352 83.0553C34.688 83.8312 34.2922 84.214 33.51 84.2347C32.6429 84.2554 32.1433 83.6967 32.1999 82.7863C32.2564 81.8655 32.7937 81.3379 33.6136 81.3896Z" fill="#FCFCFC" fill-opacity="0.08" />
</symbol>
  </defs>
</svg>
