<?xml version="1.0" standalone="no"?>
<!DOCTYPE svg PUBLIC "-//W3C//DTD SVG 20010904//EN"
 "http://www.w3.org/TR/2001/REC-SVG-20010904/DTD/svg10.dtd">
<svg version="1.0" xmlns="http://www.w3.org/2000/svg"
 width="700.000000pt" height="700.000000pt" viewBox="0 0 700.000000 700.000000"
 preserveAspectRatio="xMidYMid meet">
<metadata>
Created by potrace 1.14, written by Peter Selinger 2001-2017
</metadata>
<g transform="translate(0.000000,700.000000) scale(0.100000,-0.100000)"
fill="#000000" stroke="none">
<path d="M372 6966 c-125 -31 -261 -135 -315 -241 -57 -113 -57 -116 -57 -655
1 -459 2 -501 20 -559 25 -84 74 -163 134 -217 57 -52 171 -110 240 -123 26
-5 268 -9 537 -9 539 0 563 2 672 60 116 62 210 185 240 314 11 46 14 166 12
559 -1 500 -1 500 -25 560 -54 140 -147 236 -281 293 l-64 26 -530 3 c-410 1
-542 -1 -583 -11z"/>
<path d="M2853 6936 c-170 -42 -312 -179 -354 -345 -15 -57 -17 -130 -18 -546
0 -378 3 -494 14 -541 36 -155 149 -281 310 -345 l60 -24 515 -2 c298 -1 536
2 565 7 125 24 268 127 329 235 61 110 63 133 63 656 1 263 -4 501 -9 530 -31
173 -178 326 -359 374 -73 20 -1036 20 -1116 1z"/>
<path d="M5377 6919 c-142 -34 -262 -125 -326 -249 -55 -104 -57 -138 -56
-670 2 -466 3 -488 23 -550 28 -84 56 -130 122 -196 62 -62 166 -117 253 -133
36 -7 244 -11 541 -11 525 0 543 2 656 58 70 34 170 132 204 200 55 108 56
125 56 657 0 379 -3 501 -14 540 -45 169 -157 285 -333 346 -49 17 -94 18
-571 18 -284 -1 -534 -5 -555 -10z"/>
<path d="M401 4458 c-176 -26 -349 -190 -390 -368 -16 -70 -14 -1001 2 -1070
19 -78 69 -167 130 -229 60 -61 184 -125 262 -137 87 -12 971 -10 1048 3 186
31 335 166 385 348 18 65 19 106 18 565 -2 534 -2 537 -57 640 -57 107 -162
194 -278 232 -64 20 -85 21 -566 22 -275 1 -524 -2 -554 -6z"/>
<path d="M3050 4438 c-217 -16 -387 -151 -446 -354 -13 -47 -16 -123 -16 -532
0 -262 3 -498 6 -524 22 -171 158 -326 338 -383 73 -23 74 -23 593 -21 286 1
533 5 549 10 17 4 62 23 102 42 120 58 217 177 255 314 9 33 12 176 13 540 0
479 -1 497 -22 565 -58 191 -221 323 -418 341 -96 8 -850 10 -954 2z"/>
<path d="M5320 4364 c-173 -59 -305 -213 -327 -384 -9 -70 -9 -968 0 -1010 17
-82 58 -165 119 -241 24 -29 110 -89 163 -113 94 -43 140 -46 675 -43 495 2
506 3 564 25 161 60 280 191 317 347 8 34 12 202 13 528 1 423 -1 486 -16 548
-43 174 -177 308 -354 354 -50 13 -140 15 -569 15 l-510 -1 -75 -25z"/>
<path d="M3017 1974 c-1 -1 -29 -4 -62 -7 -199 -17 -368 -163 -421 -362 -17
-62 -20 -980 -4 -1066 34 -182 207 -348 393 -377 32 -5 284 -8 560 -7 l502 1
65 26 c150 58 249 158 302 305 21 56 22 75 23 548 2 529 -2 573 -51 670 -58
116 -169 208 -298 247 -67 20 -91 21 -539 22 -258 1 -469 0 -470 0z"/>
<path d="M5495 1968 c-92 -10 -114 -16 -186 -54 -118 -62 -211 -179 -245 -307
-18 -67 -20 -986 -3 -1068 38 -183 192 -335 376 -373 41 -9 202 -12 563 -11
494 2 506 2 570 24 117 40 232 136 283 236 51 102 51 97 52 624 1 347 -2 511
-10 551 -36 171 -166 309 -339 361 -68 21 -93 22 -536 23 -256 0 -492 -2 -525
-6z"/>
<path d="M396 1944 c-187 -45 -336 -185 -382 -359 -20 -73 -19 -1011 0 -1076
53 -174 202 -312 385 -355 43 -10 184 -13 601 -13 508 0 550 1 620 20 185 48
332 195 369 367 14 69 15 957 1 1033 -33 171 -150 297 -350 376 -41 16 -97 18
-615 20 -467 1 -581 -1 -629 -13z"/>
</g>
</svg>
